<?xml version="1.0" standalone="no"?>
<!DOCTYPE svg PUBLIC "-//W3C//DTD SVG 20010904//EN"
 "http://www.w3.org/TR/2001/REC-SVG-20010904/DTD/svg10.dtd">
<svg version="1.0" xmlns="http://www.w3.org/2000/svg"
 width="460.000000pt" height="215.000000pt" viewBox="0 0 460.000000 215.000000"
 preserveAspectRatio="xMidYMid meet">

<g transform="translate(0.000000,215.000000) scale(0.100000,-0.100000)"
fill="#000000" stroke="none">
<path d="M1141 2124 c-17 -38 -11 -115 13 -174 5 -13 -7 -15 -77 -15 -76 0
-87 -3 -119 -27 -44 -33 -72 -100 -66 -157 2 -23 2 -41 0 -41 -1 0 -13 7 -25
14 -12 8 -42 17 -67 20 l-45 5 48 -10 c44 -10 65 -29 33 -29 -8 0 -16 -5 -18
-12 -3 -7 -10 -8 -17 -4 -11 7 -11 10 0 18 9 6 -5 8 -41 4 -51 -5 -53 -4 -30
9 35 20 6 19 -37 -2 -112 -53 -115 -221 -5 -280 17 -10 32 -21 32 -25 0 -8
-40 -16 -105 -22 -32 -2 -42 -8 -49 -28 -12 -35 -1 -72 33 -110 23 -26 36 -32
70 -32 39 -1 47 -8 42 -39 -1 -4 -5 -48 -10 -96 -11 -98 -25 -131 -57 -131
-17 0 -21 4 -17 21 3 12 -2 31 -14 47 -11 15 -25 44 -32 64 -7 21 -23 46 -35
56 -32 24 -46 55 -46 96 0 32 -18 86 -41 126 -5 8 -13 25 -18 36 -12 28 -71
64 -105 64 -28 0 -66 -31 -66 -53 0 -8 -9 -22 -20 -32 -13 -11 -20 -31 -20
-52 0 -19 -8 -45 -18 -58 -17 -21 -21 -22 -35 -9 -10 8 -12 9 -7 2 15 -19 12
-32 -5 -18 -20 17 -20 -4 0 -24 14 -14 12 -20 -20 -61 -19 -26 -35 -51 -35
-56 0 -5 -9 -9 -21 -9 -11 0 -29 -5 -40 -10 -15 -8 -19 -7 -19 3 0 8 -6 19
-13 25 -9 8 -13 -15 -15 -110 l-4 -120 31 -32 c33 -34 51 -74 51 -113 0 -22
-2 -24 -15 -13 -22 18 -31 4 -10 -16 21 -22 2 -36 -31 -24 -20 8 -23 6 -22
-21 1 -17 4 -26 7 -21 8 12 51 22 51 12 0 -5 -13 -22 -30 -38 -25 -26 -30 -38
-30 -81 0 -47 3 -53 50 -97 55 -51 54 -51 40 -89 -10 -25 -10 -25 -41 -10 -16
9 -36 14 -42 12 -7 -2 5 -12 26 -22 32 -16 37 -23 37 -52 l0 -34 -30 16 c-16
8 -31 15 -33 15 -3 0 -5 -29 -6 -65 -1 -52 2 -63 13 -59 13 5 31 49 28 67 -4
14 36 7 42 -8 8 -21 -10 -47 -51 -75 -32 -22 -34 -27 -29 -64 3 -23 7 -49 8
-58 2 -12 11 -18 30 -18 15 0 28 4 28 10 0 5 18 28 40 50 34 34 39 44 30 60
-12 22 -25 26 -35 10 -3 -5 -10 -10 -15 -10 -15 0 -18 26 -4 45 13 18 15 17
50 -18 47 -47 118 -71 183 -62 31 4 57 2 71 -5 21 -11 21 -12 3 -25 -17 -14
-17 -14 3 -15 28 0 36 -10 23 -27 -9 -10 -5 -13 20 -13 27 0 30 2 22 18 -12
23 -61 72 -72 72 -20 0 -7 17 24 32 30 14 39 14 92 1 59 -15 80 -13 162 12 26
8 55 -32 32 -45 -23 -15 -114 -20 -169 -10 -30 6 -62 11 -70 12 -8 0 -21 6
-29 12 -11 9 -13 8 -9 -4 2 -8 20 -18 39 -23 63 -15 151 -27 160 -21 5 3 23 7
40 9 17 3 37 9 44 15 11 9 17 5 30 -19 25 -49 56 -64 123 -59 73 5 117 34 133
87 11 36 15 39 45 38 43 -1 87 39 110 100 16 40 18 42 34 28 18 -16 56 -20 64
-6 3 4 -6 6 -19 3 -45 -8 -56 12 -54 102 1 81 -10 136 -32 162 -7 8 -10 16 -8
19 11 10 222 46 229 39 4 -5 6 -42 3 -82 -5 -66 -8 -73 -32 -85 -21 -10 -26
-20 -27 -52 -1 -22 -5 -111 -9 -197 -7 -128 -6 -158 5 -158 7 0 10 3 7 7 -4 3
0 14 9 24 14 15 20 16 38 7 61 -33 355 -54 372 -27 4 8 9 7 15 -2 6 -10 9 -3
9 20 0 19 7 42 16 52 14 15 18 15 44 3 l29 -15 -21 -35 -20 -34 33 2 c19 1 45
10 58 20 23 17 25 17 57 -3 27 -16 45 -19 90 -15 30 2 58 7 61 10 4 3 12 1 19
-4 18 -16 193 -7 204 10 10 16 3 61 -13 77 -10 10 -22 9 -57 -3 -28 -10 -60
-13 -85 -10 -45 7 -145 53 -145 67 0 5 44 8 98 7 53 -2 127 -1 164 1 l67 4 -2
184 -2 185 -28 24 c-27 23 -87 34 -87 16 0 -5 9 -17 20 -27 11 -10 20 -26 20
-37 0 -11 -7 -18 -20 -18 -25 0 -25 -5 0 -37 26 -33 25 -68 0 -91 -18 -15 -38
-17 -153 -13 -73 1 -138 8 -144 13 -19 16 -16 62 7 91 24 30 25 37 5 37 -23 0
-18 30 10 52 33 26 32 38 -5 38 -26 0 -30 4 -31 28 -2 23 -2 24 -6 5 -8 -40
-93 -27 -93 13 0 25 15 33 23 12 4 -10 6 -10 6 0 1 6 14 12 30 12 l29 0 7 88
c9 119 12 129 45 141 30 10 61 56 59 88 0 14 -2 15 -6 3 -3 -8 -10 -26 -15
-40 l-10 -25 -12 30 c-11 25 -11 34 1 50 7 11 13 31 12 45 -1 21 -2 19 -9 -10
-8 -34 -33 -60 -57 -60 -27 0 -103 23 -109 32 -13 21 49 57 96 58 50 0 85 19
93 49 6 24 -3 38 -28 42 -23 5 -23 0 5 249 34 306 34 287 9 293 -11 3 -18 10
-15 15 3 5 -4 12 -17 16 -30 8 -39 7 -33 -2 2 -4 0 -41 -5 -82 -5 -41 -16
-145 -24 -230 -20 -212 -23 -223 -43 -215 -14 5 -14 4 1 -13 9 -10 17 -31 17
-46 0 -52 -44 -107 -71 -90 -12 7 -11 61 2 86 9 16 8 19 -3 16 -7 -3 -14 -14
-16 -26 -2 -12 -8 -20 -13 -16 -6 3 -7 -5 -2 -23 4 -15 7 -35 7 -44 0 -10 6
-15 13 -12 8 3 13 -3 13 -14 0 -10 4 -23 9 -28 5 -6 5 -20 -1 -35 l-9 -25 -19
25 c-11 14 -20 20 -20 15 0 -13 26 -52 57 -86 33 -36 24 -64 -41 -128 l-53
-53 -34 30 c-19 17 -52 60 -73 96 -38 65 -39 66 -62 51 -22 -14 -23 -13 -63
65 -32 62 -41 90 -42 132 0 35 -3 46 -8 34 -7 -17 -8 -18 -14 -3 -3 9 -2 19 3
22 16 10 11 25 -5 19 -19 -8 -75 48 -75 75 0 14 -6 21 -20 21 -11 0 -20 5 -20
10 0 15 10 12 65 -18 31 -17 52 -36 57 -52 l7 -25 -2 25 c-1 17 -14 33 -39 49
l-37 24 61 68 c50 57 60 73 55 96 -4 20 2 35 19 56 13 16 24 36 24 45 -1 9 -7
3 -14 -14 -20 -45 -62 -74 -108 -74 -22 0 -38 3 -36 8 2 4 10 24 18 45 15 40
30 49 30 17 0 -11 5 -20 11 -20 6 0 8 7 5 15 -3 8 -9 21 -12 29 -4 9 9 18 40
29 39 13 46 13 57 1 6 -8 15 -14 20 -14 11 0 149 160 149 174 0 6 -14 -6 -31
-27 -23 -28 -34 -35 -43 -28 -9 8 -13 7 -13 -4 0 -8 4 -12 9 -9 4 3 8 2 8 -1
0 -8 -72 -85 -79 -85 -3 0 -14 14 -23 30 l-17 30 71 80 c40 44 75 80 78 80 3
0 13 -12 22 -27 10 -16 18 -23 18 -16 0 17 -97 135 -126 153 -20 12 -28 12
-42 2 -33 -24 -43 -24 -65 -4 -35 33 -91 52 -154 52 l-58 1 30 16 c35 18 75
53 75 65 0 14 -70 9 -106 -8 -19 -9 -41 -26 -49 -37 -23 -32 -28 -14 -15 49
17 80 55 119 110 111 29 -4 37 -2 33 8 -3 10 -29 14 -92 14 -85 0 -88 -1 -100
-25z m408 -280 c-15 -16 -25 -21 -28 -13 -2 7 4 18 15 26 30 22 39 15 13 -13z
m-73 -12 c18 -27 26 -79 15 -86 -13 -8 -27 19 -36 67 -8 39 3 49 21 19z m-316
-32 c-18 -11 -22 -7 -14 14 5 13 10 14 18 6 8 -8 7 -13 -4 -20z m215 10 c3 -6
3 -20 0 -31 -6 -17 -9 -19 -16 -8 -12 19 -11 49 0 49 6 0 13 -5 16 -10z m75
-20 c0 -5 -2 -10 -4 -10 -3 0 -8 5 -11 10 -3 6 -1 10 4 10 6 0 11 -4 11 -10z
m-204 -120 c18 -14 24 -24 17 -27 -17 -6 -16 -31 0 -48 10 -9 18 -10 33 -2 17
9 17 9 6 -6 -8 -9 -11 -21 -7 -28 4 -6 2 -15 -5 -19 -7 -4 -9 -13 -6 -19 9
-13 53 -15 60 -2 4 5 -4 7 -16 5 -17 -3 -16 -1 5 7 29 12 34 27 15 48 -11 11
-10 13 1 9 8 -2 19 -12 25 -21 13 -21 -20 -69 -55 -77 -22 -6 -22 -7 8 -11 17
-3 31 -3 31 0 -1 3 7 22 17 43 22 44 15 64 -27 83 l-33 14 37 1 c24 0 40 6 46
17 9 15 11 14 20 -3 13 -24 -9 -127 -38 -185 -33 -64 -104 -99 -201 -99 -42 0
-53 5 -98 46 -84 76 -88 92 -71 282 0 1 8 -6 18 -15 13 -13 16 -23 10 -35 -4
-9 -8 -26 -8 -37 0 -10 -6 -22 -12 -25 -10 -5 -10 -7 0 -12 6 -3 10 -9 7 -14
-3 -4 0 -19 5 -32 9 -19 10 -16 6 20 l-4 42 30 -25 c16 -14 35 -25 41 -25 7 1
0 7 -15 16 -41 22 -53 50 -33 80 8 13 23 24 33 24 16 -1 16 -1 0 -11 -15 -8
-16 -13 -5 -32 6 -12 17 -25 22 -29 7 -5 6 -8 0 -8 -6 0 -17 6 -24 13 -11 10
-13 9 -9 -3 6 -21 58 -26 58 -6 0 9 5 16 10 16 15 0 12 21 -7 42 -14 16 -14
18 -1 13 8 -3 21 -16 27 -28 l12 -22 -5 22 c-3 15 0 20 10 16 8 -3 16 2 20 10
8 23 -14 57 -37 57 -19 0 -19 1 3 39 l22 39 17 -37 c9 -21 29 -48 45 -61z
m-276 36 c0 -3 -4 -8 -10 -11 -5 -3 -10 -1 -10 4 0 6 5 11 10 11 6 0 10 -2 10
-4z m13 -25 c4 -1 7 -18 7 -38 l-1 -38 -29 35 c-36 41 -37 51 -7 46 12 -3 25
-5 30 -5z m147 -16 c0 -9 -6 -12 -15 -9 -8 4 -12 10 -9 15 8 14 24 10 24 -6z
m-155 -64 c3 -5 1 -12 -5 -16 -5 -3 -10 1 -10 9 0 18 6 21 15 7z m526 -9 l22
-19 -48 -16 c-27 -10 -50 -17 -51 -17 -2 0 5 35 12 58 5 18 38 15 65 -6z
m-516 -62 c1 -37 -1 -40 -27 -40 -26 0 -27 2 -16 22 10 16 40 58 43 58 0 0 0
-18 0 -40z m-594 -87 c17 -10 39 -38 51 -63 11 -25 27 -59 35 -77 9 -18 14
-47 11 -68 -4 -31 1 -41 38 -79 23 -25 45 -59 49 -77 4 -18 14 -39 21 -47 24
-23 16 -29 -33 -25 -88 6 -98 8 -125 27 -32 21 -64 18 -60 -7 2 -11 -4 -17
-18 -17 -11 0 -22 1 -23 3 -2 1 -11 -4 -20 -11 -13 -11 -17 -10 -25 4 -8 14
-3 24 24 48 41 36 44 63 7 77 -65 26 -71 31 -65 51 3 14 7 16 12 8 11 -17 30
-3 30 21 0 31 -29 79 -47 79 -13 0 -15 8 -10 41 3 23 13 49 23 58 16 15 16 15
10 -2 -4 -13 -2 -17 6 -15 18 6 23 48 6 48 -21 1 32 40 54 40 11 0 33 -8 49
-17z m627 -8 c1 -11 -2 -27 -8 -35 -9 -13 -13 -11 -29 10 -15 18 -17 28 -9 38
16 18 43 11 46 -13z m-133 -4 c-8 -13 -35 -15 -35 -2 0 5 8 11 18 13 21 5 26
2 17 -11z m85 -45 c-1 -31 -1 -31 -15 9 -18 50 -18 50 0 35 8 -7 15 -27 15
-44z m-205 -12 c-19 -20 -38 -56 -45 -82 -11 -45 -11 -45 -30 -26 -11 10 -26
36 -35 58 l-16 38 44 -6 c42 -6 45 -5 71 29 15 19 31 33 36 30 4 -3 -7 -21
-25 -41z m723 24 c-2 -13 -9 -22 -16 -20 -8 1 -11 -2 -7 -8 3 -6 -15 -33 -42
-60 -42 -44 -52 -50 -78 -45 l-30 6 67 71 c46 48 73 68 83 64 9 -3 13 -2 10 4
-3 6 -1 10 5 10 6 0 10 -10 8 -22z m495 -28 c-3 -10 -11 -25 -19 -31 -11 -9
-14 -8 -14 8 0 19 17 43 31 43 4 0 5 -9 2 -20z m-1137 -15 c9 -23 -15 -73 -39
-81 -30 -9 -49 20 -36 54 16 42 63 59 75 27z m238 -26 c25 -19 36 -49 18 -49
-10 0 -62 53 -62 63 0 13 17 7 44 -14z m95 -19 c-13 -16 -23 -29 -24 -27 -1 1
-5 14 -9 30 -6 25 -4 27 24 27 l31 0 -22 -30z m41 -25 c-7 -8 -17 -15 -22 -15
-6 0 -5 7 2 15 7 8 17 15 22 15 6 0 5 -7 -2 -15z m750 -5 c-11 -20 -30 -28
-30 -12 0 11 22 32 32 32 5 0 4 -9 -2 -20z m-807 -71 c24 10 25 9 21 -22 -4
-29 1 -36 46 -70 58 -44 58 -41 3 -152 -36 -73 -35 -81 2 -19 l22 36 42 -77
c23 -43 40 -79 39 -80 -2 -1 -46 -10 -98 -19 -52 -9 -105 -19 -116 -22 -21 -5
-21 -4 -11 36 10 35 15 40 33 36 14 -4 28 2 40 16 10 12 13 18 6 14 -13 -8
-52 19 -52 36 0 5 -11 26 -25 48 -23 36 -27 39 -51 30 -38 -15 -46 -13 -34 9
12 24 13 41 1 41 -5 0 -12 -16 -15 -35 -6 -30 -15 -39 -52 -57 -27 -14 -47
-18 -53 -12 -6 5 1 51 16 117 22 91 30 111 50 120 13 5 26 7 31 2 4 -4 2 -10
-5 -12 -7 -2 -9 -11 -6 -19 3 -8 0 -14 -6 -14 -6 0 -11 5 -11 10 0 6 -5 10
-11 10 -5 0 -7 -5 -3 -11 3 -6 0 -15 -7 -20 -9 -6 -4 -7 15 -3 26 6 28 5 15
-8 -8 -9 -18 -14 -22 -11 -5 3 -4 -4 2 -16 9 -16 9 -26 0 -42 -9 -17 -8 -23 2
-30 10 -6 8 -9 -9 -9 -13 0 -20 4 -17 10 3 6 1 10 -5 10 -6 0 -8 -10 -4 -25 4
-15 2 -25 -5 -25 -6 0 -11 -4 -11 -10 0 -5 7 -7 15 -4 8 4 15 12 15 20 0 8 4
14 10 14 5 0 7 -7 3 -16 -5 -14 -3 -14 15 2 12 9 19 21 16 26 -3 4 0 8 7 8 7
0 4 7 -7 15 -15 12 -16 16 -5 24 7 5 10 14 6 20 -4 7 -1 19 6 27 8 9 13 41 13
75 -1 32 2 56 6 54 3 -2 4 10 2 26 l-5 31 61 -46 c52 -40 64 -45 85 -37z m820
-75 c9 -3 17 -10 17 -15 0 -6 5 -7 11 -3 8 4 7 0 -1 -15 -13 -25 -48 -41 -92
-41 -27 0 -30 3 -24 23 3 12 6 32 6 45 0 21 3 23 33 17 17 -4 40 -9 50 -11z
m-513 -154 c6 -11 8 -20 6 -20 -3 0 -10 9 -16 20 -6 11 -8 20 -6 20 3 0 10 -9
16 -20z m-355 -40 c14 -28 32 -53 40 -57 23 -8 18 -22 -6 -16 -13 4 -31 28
-49 64 -35 72 -21 79 15 9z m871 -2 c3 -10 0 -27 -6 -39 -11 -19 -18 -21 -66
-17 -32 3 -54 1 -54 -5 0 -6 -9 -2 -20 8 -11 10 -20 23 -20 29 0 6 7 3 14 -6
18 -25 29 -22 16 3 -20 36 -7 44 64 44 54 0 67 -3 72 -17z m-1440 -115 c-70
-84 -73 -115 -21 -168 39 -39 55 -44 55 -17 0 9 9 -1 19 -23 10 -23 29 -46 44
-52 32 -15 32 -10 6 -113 -15 -60 -31 -97 -60 -136 -22 -30 -41 -54 -43 -54
-5 0 4 221 9 237 11 33 -66 23 -106 -14 l-26 -24 -59 20 c-34 11 -60 26 -62
35 -4 19 -16 20 -43 6 -14 -8 -19 -7 -19 3 0 7 16 21 35 30 40 19 75 70 75
109 0 37 27 53 61 37 13 -7 15 3 12 79 l-4 87 48 23 c26 12 62 22 80 22 17 0
35 6 40 13 5 8 9 5 11 -11 2 -15 -14 -43 -52 -89z m1102 -43 c29 -44 62 -85
73 -91 21 -11 21 -11 -2 -35 -29 -30 -31 -30 -73 6 -25 23 -35 41 -40 74 -4
25 -16 56 -27 69 -26 35 -23 51 11 56 3 1 29 -35 58 -79z m-87 23 c13 -16 12
-17 -3 -4 -17 13 -22 21 -14 21 2 0 10 -8 17 -17z m-1151 -49 c0 -27 -4 -43
-10 -39 -11 7 -13 45 -4 69 10 26 14 18 14 -30z m1429 -88 c-7 -34 -18 -70
-25 -81 -7 -11 -22 -99 -33 -195 -27 -222 -24 -212 -64 -233 -32 -17 -37 -18
-64 -4 -16 9 -36 24 -44 33 -9 11 -9 15 -1 10 9 -5 12 9 12 63 0 38 3 77 7 87
5 14 -1 12 -28 -8 -19 -14 -53 -35 -77 -47 -48 -24 -51 -23 -159 46 -45 28
-52 37 -42 49 14 17 32 13 102 -22 60 -30 61 -30 100 0 43 32 75 41 92 26 10
-9 15 -9 15 -1 0 6 -12 14 -26 17 l-26 7 6 86 c7 80 9 88 38 113 24 21 35 25
50 17 25 -13 36 -6 110 75 57 63 63 67 66 46 2 -13 -2 -51 -9 -84z m-1709 -8
c0 -5 -4 -8 -10 -8 -5 0 -10 10 -10 23 0 18 2 19 10 7 5 -8 10 -18 10 -22z
m784 24 c2 -4 -7 -18 -20 -31 -14 -14 -34 -41 -44 -62 -18 -33 -18 -38 -3 -43
9 -4 17 -5 18 -4 0 2 19 28 40 58 21 30 30 48 20 40 -10 -8 -29 -33 -43 -55
-14 -22 -27 -35 -29 -28 -6 16 20 64 51 92 23 21 29 23 52 12 l27 -12 -25 -27
c-14 -15 -40 -51 -58 -79 -17 -29 -33 -53 -35 -53 -2 0 -18 13 -36 29 -30 27
-31 31 -20 63 11 31 77 108 92 108 4 0 10 -3 13 -8z m-770 -66 c3 -14 1 -37
-5 -53 -12 -33 -79 -104 -91 -97 -17 11 -7 71 22 122 34 58 64 69 74 28z m911
-37 c28 -20 57 -45 66 -55 24 -27 40 -117 33 -180 -7 -54 -13 -60 -52 -55 -6
1 -20 -2 -29 -8 -12 -6 -24 -4 -40 6 -21 14 -23 23 -23 94 0 71 -2 79 -22 90
-13 6 -32 19 -44 28 -11 9 -4 0 15 -19 35 -34 36 -38 36 -107 0 -40 -3 -73 -6
-73 -10 0 -19 40 -19 82 0 34 -4 40 -39 58 -22 11 -42 23 -45 28 -15 25 84
169 108 155 6 -4 34 -23 61 -44z m831 -10 c6 -10 -11 -11 -43 -3 -13 4 -21 10
-18 14 6 9 53 1 61 -11z m-34 -65 c-3 -26 -8 -41 -14 -38 -6 4 -8 21 -5 38 3
17 3 25 0 19 -8 -21 -23 -14 -23 11 0 19 4 22 23 19 20 -4 22 -9 19 -49z
m-1023 -5 c38 -36 36 -43 -7 -28 -24 8 -32 17 -32 35 0 13 2 24 4 24 1 0 18
-14 35 -31z m-483 -35 c-4 -11 -1 -14 13 -9 13 4 20 -1 25 -17 6 -20 8 -21 14
-5 7 16 9 16 30 1 12 -8 31 -33 42 -54 71 -140 -54 -299 -216 -274 -84 12
-147 76 -160 162 -6 40 -4 48 16 64 29 23 50 23 50 -1 0 -13 -8 -21 -22 -23
-54 -7 -4 -139 65 -171 46 -22 112 -21 163 2 51 23 87 67 78 95 -8 26 -25 38
-39 26 -7 -6 -22 -4 -39 5 -16 8 -42 15 -60 16 l-31 1 35 15 c42 18 80 51 80
70 0 18 -16 17 -23 -1 -5 -13 -67 -52 -67 -43 0 2 7 18 16 36 8 17 14 37 11
44 -2 6 -11 -5 -20 -25 -10 -25 -28 -43 -54 -57 -22 -10 -45 -32 -51 -46 -17
-37 -26 -24 -23 30 2 40 -1 45 -23 51 -14 3 -30 3 -35 -1 -20 -12 -11 22 10
41 13 12 32 17 54 16 24 -3 39 3 53 19 41 43 122 69 108 33z m-198 -30 c-20
-20 -41 -33 -47 -30 -20 13 -11 33 22 50 54 27 64 19 25 -20z m1668 20 c-3 -8
-2 -12 4 -9 11 7 14 -8 3 -19 -4 -4 -6 -24 -4 -45 1 -26 -3 -42 -15 -52 -16
-13 -17 -11 -11 35 4 27 7 62 7 77 0 16 5 29 11 29 6 0 8 -7 5 -16z m133 3
c-8 -7 -19 -21 -23 -32 -6 -14 -10 -16 -13 -7 -6 15 24 52 41 52 6 0 4 -6 -5
-13z m-1739 -1 c0 -2 -8 -10 -17 -17 -16 -13 -17 -12 -4 4 13 16 21 21 21 13z
m11 -19 c-10 -9 -11 -8 -5 6 3 10 9 15 12 12 3 -3 0 -11 -7 -18z m275 -14 c43
-36 53 -56 35 -67 -11 -7 -91 74 -91 91 0 19 7 16 56 -24z m1825 0 c-8 -15
-10 -15 -11 -2 0 17 10 32 18 25 2 -3 -1 -13 -7 -23z m-1361 -48 c0 -18 3 -47
6 -64 11 -56 -10 -33 -30 32 -33 111 -33 102 -2 82 19 -13 26 -26 26 -50z
m372 -116 c-2 -41 -8 -78 -14 -84 -6 -6 -8 21 -7 78 2 56 7 86 13 84 7 -3 10
-32 8 -78z m834 72 c-4 -5 0 -12 6 -14 8 -3 6 -6 -4 -6 -10 -1 -18 6 -18 14 0
8 5 15 11 15 5 0 8 -4 5 -9z m64 -11 c0 -5 -2 -10 -4 -10 -3 0 -8 5 -11 10 -3
6 -1 10 4 10 6 0 11 -4 11 -10z m-413 -90 c1 -70 -2 -90 -13 -90 -7 0 -18 9
-24 21 -15 28 -2 130 19 146 9 7 16 13 16 13 1 0 1 -40 2 -90z m-1207 58 c0
-16 -3 -19 -11 -11 -6 6 -8 16 -5 22 11 17 16 13 16 -11z m420 -13 c16 -10 12
-28 -14 -60 l-24 -30 -11 28 c-12 31 -14 60 -5 70 6 6 38 2 54 -8z m1142 -22
l-6 -28 -7 25 c-6 20 -7 17 -10 -20 l-2 -45 -7 45 -7 45 -3 -45 -3 -45 -7 35
-7 35 -2 -32 c-1 -22 -6 -33 -16 -33 -11 0 -15 12 -15 45 l0 45 49 0 c47 0 48
-1 43 -27z m-1062 12 c0 -3 -9 -23 -20 -45 -21 -41 -74 -85 -90 -75 -15 9 -12
32 5 38 8 4 26 24 40 47 16 25 33 40 45 40 11 0 20 -2 20 -5z m25 -32 c-19
-44 -62 -93 -83 -93 -9 0 -5 8 11 20 14 11 35 40 47 65 26 54 47 60 25 8z
m1032 -35 c-3 -8 -6 -5 -6 6 -1 11 2 17 5 13 3 -3 4 -12 1 -19z m-735 -13 c4
-20 -1 -29 -28 -45 -18 -12 -46 -37 -63 -56 -17 -19 -32 -33 -32 -32 -5 10 -6
66 -2 81 4 15 95 77 114 77 4 0 9 -11 11 -25z m338 -78 c0 -2 -10 -12 -22 -23
l-23 -19 19 23 c18 21 26 27 26 19z m107 -42 c-10 -7 -25 -22 -34 -32 -8 -10
-11 -11 -7 -3 12 25 36 50 48 50 6 0 3 -7 -7 -15z m409 -19 c-1 -41 -12 -38
-18 4 -3 18 0 30 7 30 7 0 11 -15 11 -34z m-131 4 c3 -5 -1 -10 -9 -10 -9 0
-16 5 -16 10 0 6 4 10 9 10 6 0 13 -4 16 -10z"/>
<path d="M1178 1523 c7 -3 16 -2 19 1 4 3 -2 6 -13 5 -11 0 -14 -3 -6 -6z"/>
<path d="M1229 1518 c19 -25 6 -39 -26 -27 -27 10 -39 7 -29 -9 3 -5 19 -9 36
-10 38 -1 50 23 24 46 -17 16 -17 16 -5 0z"/>
<path d="M1080 1494 c7 -12 32 -33 54 -48 46 -30 98 -33 136 -10 16 10 18 13
5 8 -70 -25 -111 -17 -167 34 -24 21 -36 28 -28 16z"/>
<path d="M438 1324 c-5 -21 14 -59 25 -47 4 3 3 11 -2 17 -5 6 -11 20 -13 31
-4 20 -4 20 -10 -1z"/>
<path d="M480 1152 c0 -11 12 -24 26 -31 33 -15 43 -7 15 11 -12 7 -21 18 -21
25 0 7 -4 13 -10 13 -5 0 -10 -8 -10 -18z"/>
<path d="M1435 1381 c-3 -5 -2 -12 3 -15 5 -3 9 1 9 9 0 17 -3 19 -12 6z"/>
<path d="M1400 1330 c-8 -5 -10 -10 -5 -10 6 0 17 5 25 10 8 5 11 10 5 10 -5
0 -17 -5 -25 -10z"/>
<path d="M1370 1315 c0 -5 5 -17 10 -25 5 -8 10 -10 10 -5 0 6 -5 17 -10 25
-5 8 -10 11 -10 5z"/>
<path d="M803 1353 c-10 -3 -9 -8 2 -20 15 -15 12 -33 -6 -33 -6 0 -7 5 -3 12
4 7 3 8 -4 4 -16 -10 -15 -26 1 -26 29 1 40 16 27 40 -11 20 -10 22 4 17 10
-4 15 -3 11 3 -7 11 -13 11 -32 3z"/>
<path d="M1185 1129 c3 -8 25 -27 48 -42 l42 -29 -30 29 c-50 47 -67 58 -60
42z"/>
<path d="M1003 1068 c0 -30 1 -30 10 -10 7 15 7 26 0 33 -6 6 -10 -1 -10 -23z"/>
<path d="M950 1061 c0 -25 6 -27 13 -6 4 8 2 17 -3 20 -6 4 -10 -3 -10 -14z"/>
<path d="M563 575 c0 -22 2 -30 4 -17 2 12 2 30 0 40 -3 9 -5 -1 -4 -23z"/>
<path d="M612 430 c0 -14 2 -19 5 -12 2 6 2 18 0 25 -3 6 -5 1 -5 -13z"/>
<path d="M597 385 c-3 -11 -15 -35 -27 -52 -12 -18 -20 -33 -17 -33 10 0 58
82 54 93 -2 6 -6 3 -10 -8z"/>
<path d="M1336 372 c-2 -4 11 -14 30 -23 29 -14 34 -14 39 -1 3 9 0 12 -9 9
-8 -3 -16 -1 -18 5 -5 13 -36 20 -42 10z"/>
<path d="M203 393 c-18 -7 -16 -52 2 -59 21 -9 47 15 43 40 -3 21 -22 29 -45
19z m31 -22 c3 -5 -1 -11 -9 -15 -15 -6 -29 7 -18 18 9 9 21 8 27 -3z"/>
<path d="M1795 278 c-11 -33 -13 -98 -2 -112 10 -13 12 -3 12 54 1 69 -1 82
-10 58z"/>
<path d="M1350 155 c-6 -8 -9 -19 -6 -24 4 -5 2 -12 -4 -16 -5 -3 -10 -1 -10
6 0 9 -3 10 -10 3 -6 -6 -8 -18 -5 -27 5 -12 14 -8 41 23 19 20 34 40 34 44 0
12 -28 6 -40 -9z m20 -10 c-7 -9 -15 -13 -17 -11 -7 7 7 26 19 26 6 0 6 -6 -2
-15z"/>
<path d="M1896 2104 c-3 -26 -6 -86 -6 -134 0 -83 1 -87 31 -116 25 -24 30
-35 27 -66 -4 -40 7 -48 67 -48 29 0 31 2 27 34 -4 33 -1 36 46 60 46 23 50
29 65 83 9 32 19 76 22 98 3 22 11 59 17 83 13 53 5 62 -29 31 l-26 -24 6 23
c4 19 1 22 -24 22 -25 0 -29 -4 -30 -27 0 -16 -2 -37 -4 -48 -2 -11 -6 -45
-10 -76 -5 -46 -10 -58 -33 -71 -25 -15 -29 -15 -50 2 -12 10 -20 24 -18 32 3
7 7 52 11 101 l6 87 -44 0 -44 0 -7 -46z m277 -36 c-5 -22 -29 -48 -44 -48
-12 0 4 44 20 57 24 18 30 16 24 -9z m-207 -25 c-10 -10 -19 5 -10 18 6 11 8
11 12 0 2 -7 1 -15 -2 -18z m4 -47 c0 -16 -18 -31 -27 -22 -8 8 5 36 17 36 5
0 10 -6 10 -14z"/>
<path d="M2040 1722 c0 -6 -8 -13 -17 -15 -16 -4 -16 -5 -1 -6 18 -1 34 16 24
26 -3 4 -6 1 -6 -5z"/>
<path d="M1601 1687 c-8 -10 -7 -14 2 -14 8 0 14 6 14 14 0 7 -1 13 -2 13 -2
0 -8 -6 -14 -13z"/>
<path d="M1534 1618 c-4 -7 -3 -10 1 -5 5 4 16 0 26 -9 14 -12 18 -13 25 -2 4
7 3 10 -1 5 -5 -4 -16 0 -26 9 -14 12 -18 13 -25 2z"/>
<path d="M3156 1587 c-17 -17 -32 -24 -46 -20 -13 4 -33 -3 -50 -16 -32 -23
-50 -27 -50 -10 0 5 -4 7 -10 4 -5 -3 -10 3 -10 14 0 29 -30 41 -104 41 -67 0
-96 -14 -96 -48 0 -9 -12 -22 -26 -29 -21 -10 -25 -10 -20 2 3 8 1 17 -4 20
-6 4 -10 1 -10 -5 0 -6 -14 5 -31 25 -29 33 -34 35 -94 35 -80 0 -95 -13 -95
-81 0 -31 -4 -48 -10 -44 -5 3 -10 -1 -10 -9 0 -9 4 -16 9 -16 7 0 17 -285 12
-370 0 -8 0 -63 0 -122 l0 -107 -28 -4 -28 -4 28 -2 27 -1 0 -97 c1 -70 5
-104 15 -117 8 -11 15 -37 15 -57 0 -32 6 -41 42 -68 46 -34 92 -40 123 -16
28 21 63 52 48 41 -15 -10 -43 9 -43 28 0 7 10 22 23 34 20 19 35 22 105 22
69 0 85 3 102 20 11 11 20 25 20 30 0 6 7 10 15 10 13 0 14 -4 5 -21 -7 -11
-9 -24 -5 -27 4 -4 86 -8 182 -10 193 -3 223 4 223 52 0 34 23 28 63 -16 l32
-35 -30 -9 c-37 -11 -75 -67 -75 -110 0 -24 -7 -38 -24 -49 -26 -17 -78 -117
-96 -184 -7 -25 -17 -41 -26 -41 -8 0 -12 -5 -9 -10 3 -5 0 -10 -7 -10 -10 0
-9 -3 2 -10 9 -6 17 -5 22 3 5 9 10 9 20 -1 6 -6 24 -12 39 -12 15 0 29 -6 32
-14 6 -14 84 -15 106 -2 6 4 11 2 11 -3 0 -6 11 -11 24 -11 22 0 44 -35 81
-135 4 -11 9 -15 12 -9 2 7 -12 51 -32 100 -19 48 -35 90 -35 92 0 9 57 -68
100 -132 23 -36 47 -66 52 -66 6 0 2 12 -7 27 -10 14 -27 42 -38 62 -11 20
-27 44 -35 54 -14 16 -13 17 19 12 29 -5 31 -4 11 5 -13 5 -22 16 -20 22 2 7
10 34 17 61 10 34 18 47 32 47 10 0 34 14 52 30 32 28 35 29 40 11 3 -12 -3
-27 -14 -37 -11 -9 -17 -20 -13 -23 3 -3 14 5 24 19 l18 24 10 -34 c6 -22 11
-27 11 -15 1 11 -5 30 -13 41 -21 30 -29 85 -17 117 7 19 8 34 1 45 -6 10 -10
12 -10 4 0 -20 -46 -37 -62 -23 -7 7 -27 21 -44 31 -21 12 -37 33 -47 62 -10
26 -16 35 -16 22 -1 -28 38 -86 69 -101 41 -20 30 -37 -26 -44 -28 -4 -68 -6
-89 -5 -38 1 -38 2 -68 75 l-30 74 23 19 c17 14 40 18 100 18 72 0 78 -2 88
-24 6 -14 21 -30 34 -37 20 -10 19 -7 -6 20 -17 17 -26 31 -22 31 21 0 48 -25
66 -60 11 -22 23 -40 26 -40 3 0 -5 19 -18 43 -15 28 -36 49 -64 62 -30 15
-38 23 -30 31 8 8 17 7 34 -4 18 -12 45 -14 132 -10 93 5 117 10 160 32 28 15
50 21 50 15 0 -6 7 -8 17 -5 15 6 15 5 -1 -12 -12 -14 -19 -42 -22 -93 -7
-115 -10 -137 -21 -151 -6 -7 -21 -42 -34 -78 -26 -75 -32 -219 -10 -283 l13
-38 239 1 c146 1 237 5 234 11 -4 5 -1 9 4 9 6 0 11 -4 11 -10 0 -12 43 -8 52
5 5 6 8 5 8 -2 0 -9 21 -13 70 -13 l70 0 -2 312 -3 312 -59 18 c-32 10 -89 19
-127 20 -38 1 -69 5 -69 10 0 4 12 6 28 4 l27 -3 -3 81 -4 81 55 18 c29 9 69
17 88 17 27 0 31 3 19 11 -12 9 -12 10 3 5 10 -3 21 -6 23 -6 3 0 2 -4 -1 -10
-3 -5 1 -10 9 -10 19 0 23 69 5 87 -8 8 -8 13 0 17 14 9 15 232 1 241 -5 3
-19 1 -31 -5 -26 -14 -30 -11 -22 18 4 18 12 22 32 20 l26 -3 3 93 c2 81 1 92
-14 92 -16 0 -16 1 -1 18 10 10 17 22 17 27 0 10 -70 -69 -87 -99 -7 -12 -12
-39 -13 -62 0 -47 -7 -59 -27 -42 -11 8 -12 7 -7 -6 4 -11 1 -16 -12 -17 -11
0 -14 -3 -7 -5 9 -4 9 -13 2 -31 -5 -15 -8 -32 -5 -39 3 -7 -4 -20 -14 -29
-27 -25 -43 -80 -36 -123 5 -27 4 -33 -4 -22 -5 8 -9 40 -8 70 2 64 -7 109
-32 165 -9 22 -26 60 -37 85 -11 25 -19 53 -17 63 2 17 1 18 -16 2 -19 -17
-14 -27 -95 172 -7 17 -22 36 -33 42 -31 17 -134 14 -160 -5 -20 -14 -24 -14
-44 0 -26 18 -148 22 -177 6 -10 -5 -29 -37 -41 -70 -29 -77 -46 -76 -78 7
-26 69 -32 73 -134 73 -65 0 -98 -14 -98 -41 0 -6 -8 -5 -21 1 -11 6 -31 10
-44 8 -15 -2 -29 4 -38 16 -11 15 -30 21 -75 24 -55 4 -63 2 -86 -21z m134
-37 c0 -28 34 -44 60 -28 18 11 24 9 56 -23 31 -31 34 -39 25 -57 -14 -27 -4
-51 25 -63 21 -7 24 -15 24 -59 0 -44 -3 -50 -20 -50 -25 0 -46 -46 -30 -66
23 -27 -56 -102 -81 -77 -16 16 -59 -5 -59 -29 0 -15 -8 -18 -55 -18 -41 0
-55 4 -55 14 0 26 -39 46 -66 34 -22 -10 -29 -7 -59 22 -32 31 -34 36 -21 54
11 18 11 25 -2 44 -8 12 -21 22 -28 22 -10 0 -14 15 -14 55 0 47 3 55 18 55
28 0 45 43 25 63 -14 13 -12 19 20 53 33 35 38 38 57 26 18 -11 25 -11 46 3
13 8 24 22 24 30 0 11 13 15 55 15 48 0 55 -2 55 -20z m-539 -117 c52 -69 114
-153 138 -185 64 -88 63 -61 -2 34 l-57 83 0 98 0 97 60 0 61 0 -3 -227 -3
-227 -45 1 c-25 1 -48 2 -51 2 -5 1 -95 121 -236 318 -35 48 -63 97 -63 110 0
21 4 23 53 23 l53 0 95 -127z m892 2 l38 -120 -28 -82 c-15 -46 -30 -80 -34
-75 -4 4 -33 75 -64 157 -32 83 -66 172 -76 198 l-19 48 72 -3 72 -3 39 -120z
m277 120 c0 -15 -165 -441 -173 -446 -9 -6 -108 -1 -116 7 -2 2 3 18 12 36 8
18 20 51 27 73 7 22 16 45 20 50 4 6 27 72 50 148 l43 137 69 0 c37 0 68 -2
68 -5z m308 -220 c50 -124 87 -225 84 -226 -4 -1 -34 -2 -66 -2 l-60 -2 -14
38 -15 37 -69 0 c-67 0 -69 1 -63 23 18 59 30 72 66 75 l37 3 -20 52 c-10 29
-25 66 -33 82 -7 17 -21 52 -31 80 -10 27 -19 45 -21 39 -2 -6 7 -41 21 -78
l24 -67 -20 -67 c-11 -37 -32 -101 -47 -142 l-26 -75 -60 2 c-33 1 -64 2 -68
2 -4 1 -3 9 2 20 6 10 42 101 81 202 39 101 78 194 86 207 12 18 23 22 68 22
l54 0 90 -225z m-1605 46 l48 -66 -3 -105 -3 -105 -55 0 -55 0 -2 190 c-2 151
0 186 10 171 7 -10 33 -48 60 -85z m1939 26 c-6 -7 -15 -24 -20 -37 -5 -13
-12 -19 -15 -13 -6 10 28 63 40 63 3 0 1 -6 -5 -13z m-195 -309 c-3 -8 -6 -5
-6 6 -1 11 2 17 5 13 3 -3 4 -12 1 -19z m-104 -80 c22 -12 57 -67 57 -90 0
-29 -93 -25 -112 4 -11 17 -20 20 -42 14 -47 -12 -29 -39 44 -62 89 -29 120
-59 120 -116 0 -100 -106 -155 -220 -114 -37 13 -80 66 -80 97 0 28 92 27 120
-1 24 -24 43 -25 60 -5 21 25 4 42 -56 60 -75 22 -101 40 -114 81 -13 38 0 93
25 114 45 37 146 46 198 18z m-1605 -130 l3 -138 64 0 65 0 0 -50 0 -50 -120
0 -120 0 0 191 0 190 53 -3 52 -3 3 -137z m468 -48 c41 -101 74 -186 74 -187
0 -2 -25 -3 -56 -3 -52 0 -56 2 -65 30 -11 29 -12 30 -79 30 -67 0 -68 -1 -79
-30 -9 -28 -13 -30 -65 -30 l-55 0 13 38 c8 20 37 96 66 167 29 72 56 140 61
153 8 21 15 23 60 20 l51 -3 74 -185z m270 94 l69 -96 3 96 3 96 49 0 50 0 0
-190 0 -190 -42 0 c-43 0 -43 1 -115 102 l-73 101 0 -102 0 -101 -50 0 -50 0
0 190 0 190 43 0 c44 0 44 0 113 -96z m465 84 c52 -17 88 -46 109 -88 26 -51
26 -129 1 -178 -40 -78 -92 -102 -226 -102 l-95 0 0 190 0 190 89 0 c48 0 103
-5 122 -12z m559 -164 c0 -2 -7 -4 -15 -4 -8 0 -15 4 -15 10 0 5 7 7 15 4 8
-4 15 -8 15 -10z m-402 -189 c-3 -3 -9 2 -12 12 -6 14 -5 15 5 6 7 -7 10 -15
7 -18z m-1001 -21 c-3 -3 -12 -4 -19 -1 -8 3 -5 6 6 6 11 1 17 -2 13 -5z
m-333 -50 c7 -17 0 -34 -14 -34 -5 0 -12 10 -15 21 -6 17 -9 19 -16 8 -5 -8
-9 -9 -9 -3 0 27 44 34 54 8z m1839 -27 c20 -9 37 -19 37 -22 0 -3 -5 -3 -12
1 -8 5 -9 2 -5 -9 9 -23 -8 -30 -35 -15 -13 7 -27 11 -32 10 -4 -2 -13 2 -20
7 -7 6 -30 12 -51 15 -22 2 -41 5 -42 7 -2 1 -7 2 -13 3 -26 3 -7 22 27 26 46
6 95 -1 146 -23z m-1928 3 c10 -11 16 -20 13 -20 -3 0 -13 9 -23 20 -10 11
-16 20 -13 20 3 0 13 -9 23 -20z m5 -36 c0 -8 -19 -13 -24 -6 -3 5 1 9 9 9 8
0 15 -2 15 -3z m821 -161 c13 -16 12 -17 -3 -4 -17 13 -22 21 -14 21 2 0 10
-8 17 -17z m259 13 c0 -2 -8 -10 -17 -17 -16 -13 -17 -12 -4 4 13 16 21 21 21
13z m774 -73 c4 -9 1 -20 -6 -25 -14 -8 -28 -11 -28 -4 0 2 -3 13 -6 23 -5 17
-5 17 6 0 6 -9 16 -15 21 -11 6 4 6 11 -2 20 -7 8 -7 14 -1 14 5 0 13 -8 16
-17z m-59 -13 c3 -5 1 -10 -4 -10 -6 0 -11 5 -11 10 0 6 2 10 4 10 3 0 8 -4
11 -10z m17 -31 c3 -9 10 -9 27 0 28 15 41 1 68 -71 9 -27 21 -48 25 -48 21 0
4 -19 -22 -25 -26 -6 -30 -10 -25 -28 5 -16 4 -18 -3 -8 -8 11 -20 9 -71 -10
-51 -20 -60 -27 -55 -44 3 -14 0 -12 -13 8 -17 26 -42 40 -26 15 4 -7 9 -22
10 -33 3 -19 3 -19 -12 2 -19 27 -59 115 -57 126 1 4 -2 7 -7 7 -5 0 -8 12 -8
26 l0 26 19 -29 c16 -24 19 -24 13 -5 -4 13 -2 22 4 22 6 0 11 -7 11 -15 0 -8
5 -15 11 -15 6 0 8 8 5 18 -4 13 5 22 37 36 23 10 45 18 50 17 4 0 7 4 7 10 0
6 -7 9 -15 5 -8 -3 -15 -1 -15 3 0 9 16 18 32 20 3 1 8 -4 10 -10z m-112 -44
c0 -5 -5 -3 -10 5 -5 8 -10 20 -10 25 0 6 5 3 10 -5 5 -8 10 -19 10 -25z m60
25 c0 -5 -4 -10 -10 -10 -5 0 -10 5 -10 10 0 6 5 10 10 10 6 0 10 -4 10 -10z
m-30 -10 c0 -5 -5 -10 -11 -10 -5 0 -7 5 -4 10 3 6 8 10 11 10 2 0 4 -4 4 -10z
m224 -160 c-6 -5 -24 21 -24 34 0 6 6 1 14 -10 8 -10 12 -21 10 -24z m-34 20
c0 -5 -4 -10 -10 -10 -5 0 -10 5 -10 10 0 6 5 10 10 10 6 0 10 -4 10 -10z
m-55 -20 c3 -5 1 -10 -4 -10 -6 0 -11 5 -11 10 0 6 2 10 4 10 3 0 8 -4 11 -10z
m105 -20 c0 -5 -4 -10 -10 -10 -5 0 -10 5 -10 10 0 6 5 10 10 10 6 0 10 -4 10
-10z m-150 -35 c0 -5 -5 -3 -10 5 -5 8 -10 20 -10 25 0 6 5 3 10 -5 5 -8 10
-19 10 -25z m55 25 c3 -5 1 -10 -4 -10 -6 0 -11 5 -11 10 0 6 2 10 4 10 3 0 8
-4 11 -10z m55 -10 c-24 -15 -36 -11 -14 4 10 8 21 12 24 10 2 -3 -2 -9 -10
-14z m-140 0 c0 -5 -4 -10 -10 -10 -5 0 -10 5 -10 10 0 6 5 10 10 10 6 0 10
-4 10 -10z m60 0 c0 -5 -5 -10 -11 -10 -5 0 -7 5 -4 10 3 6 8 10 11 10 2 0 4
-4 4 -10z m40 -20 c0 -5 -2 -10 -4 -10 -3 0 -8 5 -11 10 -3 6 -1 10 4 10 6 0
11 -4 11 -10z"/>
<path d="M3183 1426 c-35 -16 -63 -61 -63 -101 0 -58 55 -115 110 -115 40 0
88 31 105 67 45 94 -55 192 -152 149z"/>
<path d="M2981 859 c-7 -23 -15 -47 -18 -55 -4 -11 5 -14 37 -14 36 0 41 3 35
18 -3 9 -12 34 -18 55 -7 20 -15 37 -18 37 -3 0 -11 -18 -18 -41z"/>
<path d="M3750 840 l0 -90 43 0 c57 0 92 34 92 90 0 56 -35 90 -92 90 l-43 0
0 -90z"/>
<path d="M4454 244 c3 -9 6 -18 6 -20 0 -2 5 -4 11 -4 8 0 9 4 0 13 -6 8 -8
17 -4 20 3 4 1 7 -6 7 -8 0 -11 -6 -7 -16z"/>
<path d="M4420 240 c0 -5 5 -10 10 -10 6 0 10 5 10 10 0 6 -4 10 -10 10 -5 0
-10 -4 -10 -10z"/>
<path d="M4423 213 c-7 -2 -13 -9 -13 -15 0 -7 5 -7 13 1 8 6 17 8 20 4 4 -3
7 -1 7 5 0 13 -7 14 -27 5z"/>
<path d="M4470 200 c0 -5 5 -10 10 -10 6 0 10 5 10 10 0 6 -4 10 -10 10 -5 0
-10 -4 -10 -10z"/>
<path d="M4380 190 c0 -5 5 -10 10 -10 6 0 10 5 10 10 0 6 -4 10 -10 10 -5 0
-10 -4 -10 -10z"/>
<path d="M4473 173 c-7 -2 -13 -9 -13 -15 0 -7 5 -6 14 1 11 10 17 8 25 -6 11
-20 14 -13 5 11 -6 17 -11 18 -31 9z"/>
<path d="M4400 165 c0 -5 5 -17 10 -25 5 -8 10 -10 10 -5 0 6 -5 17 -10 25 -5
8 -10 11 -10 5z"/>
<path d="M4305 150 c3 -5 8 -10 11 -10 2 0 4 5 4 10 0 6 -5 10 -11 10 -5 0 -7
-4 -4 -10z"/>
<path d="M4430 150 c0 -5 5 -10 10 -10 6 0 10 5 10 10 0 6 -4 10 -10 10 -5 0
-10 -4 -10 -10z"/>
<path d="M4340 140 c0 -5 5 -10 10 -10 6 0 10 5 10 10 0 6 -4 10 -10 10 -5 0
-10 -4 -10 -10z"/>
<path d="M4300 120 c-8 -5 -10 -10 -5 -10 6 0 17 5 25 10 8 5 11 10 5 10 -5 0
-17 -5 -25 -10z"/>
<path d="M4430 120 c-8 -5 -12 -11 -10 -14 3 -2 14 2 24 10 22 15 10 19 -14 4z"/>
<path d="M4390 100 c0 -5 5 -10 11 -10 5 0 7 5 4 10 -3 6 -8 10 -11 10 -2 0
-4 -4 -4 -10z"/>
<path d="M4300 90 c0 -5 5 -10 10 -10 6 0 10 5 10 10 0 6 -4 10 -10 10 -5 0
-10 -4 -10 -10z"/>
<path d="M4283 1405 l-28 -26 38 22 c37 21 45 29 28 29 -6 0 -23 -11 -38 -25z"/>
<path d="M14 1385 c-18 -14 -17 -14 9 -4 31 14 77 -1 77 -25 0 -7 7 -19 15
-26 8 -7 15 -21 15 -31 0 -11 4 -19 9 -19 6 0 6 12 0 30 -6 17 -15 30 -20 30
-5 0 -9 6 -9 14 0 18 -38 46 -60 46 -9 0 -25 -7 -36 -15z"/>
<path d="M4390 1365 c0 -2 14 -10 31 -19 23 -12 28 -12 20 -2 -11 12 -51 29
-51 21z"/>
<path d="M60 1346 c0 -8 -13 -26 -30 -39 -24 -21 -30 -33 -30 -66 0 -23 3 -41
7 -41 3 0 25 15 49 33 51 38 65 78 38 108 -20 22 -34 25 -34 5z"/>
<path d="M4457 1299 c4 -13 8 -18 11 -10 2 7 -1 18 -6 23 -8 8 -9 4 -5 -13z"/>
<path d="M2278 1213 c-17 -3 -36 -17 -49 -36 -20 -32 -20 -32 0 -8 11 12 42
29 68 36 46 13 37 16 -19 8z"/>
<path d="M1788 1173 c-22 -25 -41 -64 -34 -70 2 -3 12 11 20 31 8 20 25 40 38
46 15 5 17 9 7 9 -9 1 -23 -7 -31 -16z"/>
<path d="M2358 1120 c2 -17 8 -30 13 -30 14 0 11 36 -4 49 -11 8 -13 5 -9 -19z"/>
<path d="M2187 1127 c-4 -11 -4 -23 -1 -29 3 -5 -6 -22 -21 -38 -23 -24 -27
-38 -27 -80 0 -46 3 -55 28 -75 16 -13 44 -26 62 -30 25 -5 32 -11 32 -30 0
-13 -5 -27 -10 -30 -20 -12 0 -22 42 -21 l43 1 -3 54 c-3 51 -2 53 19 48 13
-3 38 2 60 14 32 16 39 25 39 48 0 16 -7 34 -15 41 -18 15 -20 -1 -3 -18 9 -9
9 -12 -1 -12 -7 0 -26 -9 -41 -20 -27 -19 -28 -19 -23 -1 6 25 -11 35 -38 21
-19 -11 -20 -10 -14 9 7 23 -4 28 -23 9 -6 -6 -13 -10 -14 -7 -2 2 -14 17 -28
33 l-25 28 23 -7 c20 -6 23 -4 20 11 -2 10 -14 21 -28 24 -14 4 -24 12 -22 18
1 7 -2 12 -7 12 -5 0 -11 10 -13 23 -3 20 -4 20 -11 4z m43 -162 c11 -13 10
-14 -4 -9 -9 3 -16 10 -16 15 0 13 6 11 20 -6z m80 -25 c0 -5 -8 -10 -17 -10
-15 0 -16 2 -3 10 19 12 20 12 20 0z"/>
<path d="M2390 1118 c0 -9 5 -20 10 -23 6 -3 11 -16 11 -28 1 -14 3 -16 6 -6
2 8 -3 28 -12 45 -9 18 -15 23 -15 12z"/>
<path d="M2031 1084 c0 -11 3 -14 6 -6 3 7 2 16 -1 19 -3 4 -6 -2 -5 -13z"/>
<path d="M2042 1030 c0 -19 2 -27 5 -17 2 9 2 25 0 35 -3 9 -5 1 -5 -18z"/>
<path d="M1752 1030 c0 -14 2 -19 5 -12 2 6 2 18 0 25 -3 6 -5 1 -5 -13z"/>
<path d="M1758 992 c-1 -4 -33 -30 -70 -56 -38 -26 -68 -50 -68 -52 0 -7 15 3
88 55 34 24 62 48 62 52 0 11 -7 12 -12 1z"/>
<path d="M13 836 c9 -7 17 -19 17 -25 0 -7 5 -9 10 -6 15 9 -7 45 -28 45 -16
-1 -16 -2 1 -14z"/>
<path d="M1190 356 c0 -11 40 -86 45 -86 3 0 -4 19 -16 43 -23 45 -29 54 -29
43z"/>
<path d="M2815 248 c-3 -24 -5 -88 -3 -143 l3 -100 30 0 30 0 -3 79 c-4 82
-14 126 -32 126 -5 0 -10 15 -10 33 1 32 1 31 25 -18 14 -27 42 -90 62 -139
20 -49 39 -84 40 -79 7 19 -99 254 -123 274 -10 8 -14 0 -19 -33z"/>
<path d="M3642 221 c-12 -21 -22 -43 -22 -47 0 -5 12 11 25 35 14 24 24 45 22
47 -2 2 -13 -14 -25 -35z"/>
<path d="M3694 209 c-19 -22 -19 -22 4 -8 12 8 22 17 22 21 0 12 -6 9 -26 -13z"/>
<path d="M2383 186 c-29 -39 -51 -93 -44 -105 12 -19 29 -5 39 32 9 32 9 32
26 -28 25 -86 24 -85 36 -85 14 0 12 47 -4 93 -12 31 -12 37 0 37 15 0 19 28
6 46 -11 16 -50 23 -59 10z"/>
<path d="M3126 179 c-7 -21 -9 -38 -7 -99 2 -66 13 -89 34 -72 7 7 17 9 20 6
7 -7 -5 36 -22 80 -6 16 -10 31 -7 33 2 3 7 -5 11 -16 10 -32 57 -113 62 -107
3 2 -10 41 -27 85 -34 84 -56 115 -64 90z"/>
<path d="M3670 171 c0 -6 4 -13 10 -16 6 -3 7 1 4 9 -7 18 -14 21 -14 7z"/>
<path d="M2482 60 c0 -19 2 -27 5 -17 2 9 2 25 0 35 -3 9 -5 1 -5 -18z"/>
<path d="M3826 16 c3 -9 11 -16 16 -16 13 0 5 23 -10 28 -7 2 -10 -2 -6 -12z"/>
<path d="M230 9 c0 -5 27 -9 60 -9 78 0 78 14 0 17 -33 1 -60 -3 -60 -8z"/>
</g>
</svg>
